<svg width="70" height="70" viewBox="0 0 70 70" fill="none" xmlns="http://www.w3.org/2000/svg">
<circle cx="35" cy="35.0002" r="35" fill="#F0F3F4"/>
<path d="M44 32.0002C44 28.8176 42.7357 25.7654 40.4853 23.515C38.2348 21.2645 35.1826 20.0002 32 20.0002C28.8174 20.0002 25.7652 21.2645 23.5147 23.515C21.2643 25.7654 20 28.8176 20 32.0002C20 39.4897 28.3085 47.2897 31.0985 49.6987C31.3586 49.8938 31.6749 49.9991 32 49.9987M44 50.0002V45.5002M39.5 50.0002C39.1022 50.0002 38.7206 49.8422 38.4393 49.5609C38.158 49.2796 38 48.8981 38 48.5002V42.5002C38 42.2534 38.0609 42.0103 38.1773 41.7926C38.2937 41.5749 38.4621 41.3893 38.6675 41.2522L43.1675 38.2522C43.414 38.0878 43.7037 38 44 38C44.2963 38 44.586 38.0878 44.8325 38.2522L49.3325 41.2522C49.5379 41.3893 49.7063 41.5749 49.8227 41.7926C49.9391 42.0103 50 42.2534 50 42.5002V48.5002C50 48.8981 49.842 49.2796 49.5607 49.5609C49.2794 49.8422 48.8978 50.0002 48.5 50.0002H39.5ZM36.5 32.0002C36.5 34.4855 34.4853 36.5002 32 36.5002C29.5147 36.5002 27.5 34.4855 27.5 32.0002C27.5 29.515 29.5147 27.5002 32 27.5002C34.4853 27.5002 36.5 29.515 36.5 32.0002Z" stroke="black" stroke-width="2" stroke-linecap="round" stroke-linejoin="round"/>
</svg>
