<svg width="138" height="138" viewBox="0 0 138 138" fill="none" xmlns="http://www.w3.org/2000/svg">
<g filter="url(#filter0_d_6_526)">
<circle cx="69" cy="61" r="45" fill="white"/>
</g>
<path d="M64.9667 75.2084H73.0333L71.6584 72.275L70.4667 69.525H67.5333L66.3416 72.275L64.9667 75.2084Z" fill="#FF7058"/>
<path d="M59.8334 75.2084H78.1668C79.1751 75.2084 80.0001 76.0334 80.0001 77.0417V83H58.0918V77.0417C58.0001 76.0334 58.8251 75.2084 59.8334 75.2084Z" fill="#FFD15C"/>
<path d="M66.3416 72.275C67.0749 72.6417 67.8082 73.0083 68.5416 73.2834L68.9999 73.3751L69.4583 73.1917C70.1916 72.9167 70.9249 72.5501 71.6583 72.1834L70.4666 69.4333H67.6249L66.3416 72.275Z" fill="#F1543F"/>
<path d="M91.0001 44.0416V47.8C91.0001 56.9667 85.3168 64.85 77.3418 68.15C74.7751 69.2501 71.9334 69.8 69.0001 69.8C66.0667 69.8 63.225 69.2501 60.6584 68.15C52.6834 64.8501 47 56.9667 47 47.8001V44.0416H91.0001ZM50.6668 47.8C50.6668 52.2 52.2251 56.2333 54.8834 59.4416C58.2751 63.4749 63.3168 66.1333 69.0001 66.1333C74.6834 66.1333 79.7251 63.5667 83.1167 59.4416C85.6834 56.3249 87.3334 52.2 87.3334 47.8V47.7083H50.7585V47.8H50.6668Z" fill="#F8B64C"/>
<path d="M54.7004 39H83.3005C83.9421 39 84.4005 39.55 84.4005 40.1C84.4005 40.7417 83.9422 41.2917 83.3005 41.2917H54.7004C54.0588 41.2917 53.6004 40.7417 53.6004 40.1917C53.6005 39.55 54.0588 39 54.7004 39Z" fill="#F8B64C"/>
<path d="M54.699 41.2916V51.1916C54.699 60.3583 60.3823 68.7 68.999 72C77.6156 68.6083 83.299 60.3583 83.299 51.1V41.2916H54.699Z" fill="#FFD15C"/>
<path d="M68.9998 45.4167L67.0749 51.2834H60.9331L65.8832 54.95L64.0498 60.8168L68.9998 57.1501L73.9498 60.8168L72.1165 54.95L77.0665 51.2834H70.9248L68.9998 45.4167Z" fill="white"/>
<path d="M54.7926 41.2916H83.3009V42.6666H54.7926V41.2916Z" fill="#FFC952"/>
<defs>
<filter id="filter0_d_6_526" x="0" y="0" width="138" height="138" filterUnits="userSpaceOnUse" color-interpolation-filters="sRGB">
<feFlood flood-opacity="0" result="BackgroundImageFix"/>
<feColorMatrix in="SourceAlpha" type="matrix" values="0 0 0 0 0 0 0 0 0 0 0 0 0 0 0 0 0 0 127 0" result="hardAlpha"/>
<feOffset dy="8"/>
<feGaussianBlur stdDeviation="12"/>
<feColorMatrix type="matrix" values="0 0 0 0 0.209553 0 0 0 0 0.374091 0 0 0 0 0.620898 0 0 0 0.1 0"/>
<feBlend mode="normal" in2="BackgroundImageFix" result="effect1_dropShadow_6_526"/>
<feBlend mode="normal" in="SourceGraphic" in2="effect1_dropShadow_6_526" result="shape"/>
</filter>
</defs>
</svg>
