<svg width="138" height="138" viewBox="0 0 138 138" fill="none" xmlns="http://www.w3.org/2000/svg">
<g filter="url(#filter0_d_6_494)">
<circle cx="69" cy="61" r="45" fill="white"/>
</g>
<path d="M87.4468 43.551L87.8364 39.2666C87.8743 38.8488 88.0576 38.4577 88.3542 38.161L93.7225 32.7926C94.0725 32.4425 94.6403 32.4425 94.9903 32.7926L98.2051 36.0074C98.5552 36.3574 98.5552 36.9252 98.2051 37.2752L92.8367 42.6437C92.54 42.9404 92.1488 43.1236 91.7311 43.1615L87.4468 43.551Z" fill="#FF6464"/>
<path d="M69.5162 82.9983C81.3995 82.9983 91.0329 73.365 91.0329 61.4817C91.0329 49.5983 81.3995 39.965 69.5162 39.965C57.6329 39.965 47.9995 49.5983 47.9995 61.4817C47.9995 73.365 57.6329 82.9983 69.5162 82.9983Z" fill="#FF6464"/>
<path d="M69.5182 77.6203C78.4307 77.6203 85.6557 70.3953 85.6557 61.4828C85.6557 52.5702 78.4307 45.3452 69.5182 45.3452C60.6056 45.3452 53.3806 52.5702 53.3806 61.4828C53.3806 70.3953 60.6056 77.6203 69.5182 77.6203Z" fill="white"/>
<path d="M69.5177 72.2409C75.4594 72.2409 80.2761 67.4243 80.2761 61.4826C80.2761 55.5409 75.4594 50.7242 69.5177 50.7242C63.5761 50.7242 58.7594 55.5409 58.7594 61.4826C58.7594 67.4243 63.5761 72.2409 69.5177 72.2409Z" fill="#FF6464"/>
<path d="M69.5174 66.8618C72.4883 66.8618 74.8966 64.4535 74.8966 61.4826C74.8966 58.5118 72.4883 56.1034 69.5174 56.1034C66.5465 56.1034 64.1382 58.5118 64.1382 61.4826C64.1382 64.4535 66.5465 66.8618 69.5174 66.8618Z" fill="white"/>
<path d="M69.5157 62.3792C69.2862 62.3792 69.0568 62.2916 68.8818 62.1165C68.5317 61.7664 68.5317 61.199 68.8818 60.8488L98.4673 31.2634C98.8174 30.9132 99.3849 30.9132 99.735 31.2634C100.085 31.6135 100.085 32.1809 99.735 32.531L70.1496 62.1164C69.9745 62.2917 69.7451 62.3792 69.5157 62.3792Z" fill="#464655"/>
<path d="M99.7373 31.2634C99.3871 30.9132 98.8197 30.9132 98.4696 31.2634L96.9391 32.7938L98.2069 34.0614L99.7373 32.531C100.087 32.1809 100.087 31.6136 99.7373 31.2634Z" fill="#FF6464"/>
<defs>
<filter id="filter0_d_6_494" x="0" y="0" width="138" height="138" filterUnits="userSpaceOnUse" color-interpolation-filters="sRGB">
<feFlood flood-opacity="0" result="BackgroundImageFix"/>
<feColorMatrix in="SourceAlpha" type="matrix" values="0 0 0 0 0 0 0 0 0 0 0 0 0 0 0 0 0 0 127 0" result="hardAlpha"/>
<feOffset dy="8"/>
<feGaussianBlur stdDeviation="12"/>
<feColorMatrix type="matrix" values="0 0 0 0 0.209553 0 0 0 0 0.374091 0 0 0 0 0.620898 0 0 0 0.1 0"/>
<feBlend mode="normal" in2="BackgroundImageFix" result="effect1_dropShadow_6_494"/>
<feBlend mode="normal" in="SourceGraphic" in2="effect1_dropShadow_6_494" result="shape"/>
</filter>
</defs>
</svg>
