<svg width="138" height="138" viewBox="0 0 138 138" fill="none" xmlns="http://www.w3.org/2000/svg">
<g filter="url(#filter0_d_6_508)">
<circle cx="69" cy="61" r="45" fill="white"/>
</g>
<g clip-path="url(#clip0_6_508)">
<path d="M58.1803 54.792C55.2224 54.3899 51.772 55.6687 49.3901 58.0509L45.4127 62.0284C44.963 62.4781 44.8707 63.1742 45.1893 63.7257C45.5002 64.2699 46.1514 64.5472 46.771 64.3813C49.2949 63.7045 52.6355 63.4793 53.4569 64.1066L58.1803 54.792Z" fill="#FF637B"/>
<path d="M75.121 71.8409L65.7929 76.3409C66.3125 77.0488 66.2715 79.2878 65.6658 83.3879C65.5753 83.9944 65.8888 84.5814 66.4242 84.8491C66.9658 85.1231 67.6214 85.0172 68.0506 84.588L72.028 80.6106C74.275 78.3635 75.4898 74.9211 75.121 71.8409Z" fill="#E63950"/>
<path d="M67.1969 76.8207C63.9157 78.5906 63.4982 78.6902 63.0009 79.0282C62.4439 79.386 61.7279 79.3065 61.2508 78.8293L51.3071 68.8856C50.8497 68.4282 50.7504 67.6921 51.1082 67.1355C51.4462 66.6382 51.4861 66.3199 53.2758 62.8995L57.2137 62.8596L67.1574 72.8033L67.1969 76.8207Z" fill="#7C8388"/>
<path d="M67.1962 76.8207C63.915 78.5906 63.4975 78.6902 63.0002 79.0282C62.4432 79.386 61.7272 79.3065 61.2501 78.8293L56.278 73.8573L62.2443 67.8914L67.1563 72.8033L67.1962 76.8207Z" fill="#575F64"/>
<path d="M67.1962 76.8206L53.2751 62.8995C60.176 49.8734 68.4692 41.7391 78.0947 38.5575L84.8564 45.2793L91.4588 51.882C88.2771 61.4676 80.163 69.8201 67.1962 76.8206Z" fill="#FAECD8"/>
<path d="M67.1967 76.8207L60.2559 69.8799L84.8568 45.2793L91.4592 51.8817C88.2776 61.4677 80.1635 69.8202 67.1967 76.8207Z" fill="#F4D7AF"/>
<path d="M80.521 49.6148L80.4613 49.5551C77.717 46.8107 73.262 46.8104 70.5176 49.5551C67.7733 52.2995 67.7733 56.7545 70.5176 59.4985L70.5773 59.5582C73.3217 62.2231 77.7367 62.2231 80.4613 59.4985C83.186 56.7742 83.186 52.3588 80.521 49.6148Z" fill="#64E1DC"/>
<path d="M80.4613 59.4985C77.7367 62.2231 73.3217 62.2231 70.5773 59.5582L80.521 49.6149C83.1859 52.3589 83.1859 56.7743 80.4613 59.4985Z" fill="#00C8C8"/>
<path d="M91.4586 51.8818C88.4161 51.6631 85.1546 50.2313 82.5095 47.626L82.4498 47.5663C79.7849 44.9014 78.2933 41.6198 78.0945 38.5572C79.0093 38.2389 79.9438 37.9804 80.8788 37.7618C84.2794 36.9861 87.8393 36.8071 91.5384 37.2051C91.8962 37.2447 92.2342 37.4238 92.4331 37.7021C92.6319 37.9009 92.7714 38.1595 92.7912 38.4579C93.2091 42.1369 92.9901 45.6968 92.2144 49.0975C91.9958 50.0324 91.757 50.9472 91.4586 51.8818Z" fill="#FF637B"/>
<path d="M91.4594 51.8817C88.4169 51.6631 85.1554 50.2312 82.5103 47.626L92.4338 37.702C92.6327 37.9009 92.7719 38.1594 92.792 38.4579C93.2095 42.1372 92.9908 45.6968 92.2152 49.0974C91.9966 50.0323 91.7578 50.9471 91.4594 51.8817Z" fill="#E63950"/>
<path d="M66.9573 64.4507C66.9375 64.1123 66.7983 63.8142 66.5596 63.5755C66.3208 63.2572 65.9432 63.0386 65.5455 63.0386C60.3746 62.9987 59.2211 64.8283 58.923 65.1267C50.3119 73.7378 50.2123 77.9741 50.2123 78.4114C50.2321 78.7893 50.3712 79.1277 50.6298 79.3859C50.6495 79.4057 50.6697 79.4258 50.7096 79.4258C50.9084 79.6246 51.1868 79.744 51.4849 79.7638C52.2008 79.8433 56.2379 79.744 64.8889 71.093C66.8383 69.1441 66.9774 67.3343 66.9573 64.4507Z" fill="#FF637B"/>
<path d="M66.9578 64.4508C66.9779 67.3344 66.8387 69.1442 64.8894 71.0931C56.2384 79.7441 52.2013 79.8434 51.4857 79.7639C51.1873 79.7441 50.9089 79.6248 50.7101 79.4259L66.5604 63.5756C66.7988 63.8143 66.938 64.1124 66.9578 64.4508Z" fill="#E63950"/>
</g>
<defs>
<filter id="filter0_d_6_508" x="0" y="0" width="138" height="138" filterUnits="userSpaceOnUse" color-interpolation-filters="sRGB">
<feFlood flood-opacity="0" result="BackgroundImageFix"/>
<feColorMatrix in="SourceAlpha" type="matrix" values="0 0 0 0 0 0 0 0 0 0 0 0 0 0 0 0 0 0 127 0" result="hardAlpha"/>
<feOffset dy="8"/>
<feGaussianBlur stdDeviation="12"/>
<feColorMatrix type="matrix" values="0 0 0 0 0.209553 0 0 0 0 0.374091 0 0 0 0 0.620898 0 0 0 0.1 0"/>
<feBlend mode="normal" in2="BackgroundImageFix" result="effect1_dropShadow_6_508"/>
<feBlend mode="normal" in="SourceGraphic" in2="effect1_dropShadow_6_508" result="shape"/>
</filter>
<clipPath id="clip0_6_508">
<rect width="48" height="48" fill="white" transform="translate(45 37)"/>
</clipPath>
</defs>
</svg>
