<svg width="70" height="70" viewBox="0 0 70 70" fill="none" xmlns="http://www.w3.org/2000/svg">
<circle cx="35" cy="35.0002" r="35" fill="#F0F3F4"/>
<path d="M49.9991 42.5056V47.0308C50.0008 47.4509 49.9147 47.8667 49.7464 48.2516C49.5781 48.6365 49.3313 48.982 49.0218 49.266C48.7122 49.55 48.3467 49.7662 47.9488 49.9008C47.5508 50.0354 47.1292 50.0854 46.7108 50.0476C42.0692 49.5432 37.6106 47.9571 33.6934 45.4168C30.0488 43.1009 26.9589 40.011 24.643 36.3664C22.0938 32.4314 20.5074 27.9511 20.0122 23.2887C19.9745 22.8716 20.0241 22.4512 20.1578 22.0543C20.2915 21.6573 20.5063 21.2926 20.7887 20.9833C21.0711 20.674 21.4148 20.4268 21.7979 20.2576C22.181 20.0884 22.5951 20.0008 23.0139 20.0004H27.5391C28.2712 19.9932 28.9808 20.2524 29.5359 20.7297C30.0909 21.2071 30.4534 21.87 30.5559 22.5948C30.7469 24.043 31.1011 25.4649 31.6118 26.8334C31.8147 27.3733 31.8586 27.96 31.7383 28.5241C31.618 29.0882 31.3386 29.606 30.933 30.0161L29.0173 31.9318C31.1646 35.7081 34.2914 38.8348 38.0677 40.9821L39.9833 39.0665C40.3935 38.6609 40.9112 38.3814 41.4753 38.2611C42.0394 38.1408 42.6262 38.1847 43.1661 38.3877C44.5346 38.8984 45.9565 39.2526 47.4046 39.4436C48.1374 39.5469 48.8065 39.916 49.2849 40.4806C49.7633 41.0451 50.0174 41.7658 49.9991 42.5056Z" stroke="black" stroke-linecap="round" stroke-linejoin="round"/>
</svg>
