<svg width="138" height="138" viewBox="0 0 138 138" fill="none" xmlns="http://www.w3.org/2000/svg">
<g filter="url(#filter0_d_6_1012)">
<circle cx="69" cy="61" r="45" fill="white"/>
</g>
<path d="M68.9583 76.1165C79.4839 76.1165 88.0166 67.5839 88.0166 57.0583C88.0166 46.5327 79.4839 38 68.9583 38C58.4327 38 49.9 46.5327 49.9 57.0583C49.9 67.5839 58.4327 76.1165 68.9583 76.1165Z" fill="#FFD15C"/>
<path d="M53.5184 68.2085L46.9609 79.5754L54.6145 79.1691L58.0916 86.0006L64.1578 75.4841C59.8113 74.3597 56.079 71.7424 53.5184 68.2085Z" fill="#40596B"/>
<path d="M84.4343 68.1514C81.8926 71.6947 78.1603 74.3214 73.8233 75.4647L79.9083 86.0002L83.3855 79.1687L91.0391 79.575L84.4343 68.1514Z" fill="#40596B"/>
<path d="M68.9571 70.8725C76.5865 70.8725 82.7713 64.6877 82.7713 57.0583C82.7713 49.429 76.5865 43.2441 68.9571 43.2441C61.3278 43.2441 55.1429 49.429 55.1429 57.0583C55.1429 64.6877 61.3278 70.8725 68.9571 70.8725Z" fill="#F8B64C"/>
<path d="M78.4248 55.5649C78.85 55.1491 78.6138 54.4215 78.028 54.3365L72.576 53.5428C72.3398 53.505 72.1414 53.3633 72.0374 53.146L69.5996 48.2042C69.3351 47.6656 68.5697 47.6656 68.3051 48.2042L65.8768 53.146C65.7729 53.3538 65.565 53.505 65.3382 53.5428L59.8862 54.3365C59.3004 54.4215 59.0642 55.1491 59.4894 55.5649L63.4296 59.4105C63.5996 59.5806 63.6752 59.8168 63.6374 60.0436L62.7114 65.4672C62.6075 66.053 63.2311 66.5066 63.7603 66.2231L68.6359 63.6625C68.8437 63.5491 69.0988 63.5491 69.3067 63.6625L74.1823 66.2231C74.7114 66.4971 75.3256 66.053 75.2311 65.4672L74.2957 60.0436C74.2579 59.8074 74.3335 59.5712 74.5036 59.4105L78.4248 55.5649Z" fill="white"/>
<defs>
<filter id="filter0_d_6_1012" x="0" y="0" width="138" height="138" filterUnits="userSpaceOnUse" color-interpolation-filters="sRGB">
<feFlood flood-opacity="0" result="BackgroundImageFix"/>
<feColorMatrix in="SourceAlpha" type="matrix" values="0 0 0 0 0 0 0 0 0 0 0 0 0 0 0 0 0 0 127 0" result="hardAlpha"/>
<feOffset dy="8"/>
<feGaussianBlur stdDeviation="12"/>
<feColorMatrix type="matrix" values="0 0 0 0 0.209553 0 0 0 0 0.374091 0 0 0 0 0.620898 0 0 0 0.1 0"/>
<feBlend mode="normal" in2="BackgroundImageFix" result="effect1_dropShadow_6_1012"/>
<feBlend mode="normal" in="SourceGraphic" in2="effect1_dropShadow_6_1012" result="shape"/>
</filter>
</defs>
</svg>
