<svg width="138" height="138" viewBox="0 0 138 138" fill="none" xmlns="http://www.w3.org/2000/svg">
<g filter="url(#filter0_d_6_472)">
<circle cx="69" cy="61" r="45" fill="white"/>
</g>
<path d="M75.9577 73.7584C76.6077 71.5917 77.9077 69.6418 79.6411 68.125C82.8911 65.4167 84.9495 61.3 84.9495 56.75C84.9495 48.3 77.9078 41.3667 69.2411 41.8C61.5494 42.125 55.266 48.625 55.0494 56.3167C54.941 61.0834 56.9994 65.3084 60.3577 68.125C62.1994 69.6416 63.4994 71.5916 64.1494 73.7584H75.9577Z" fill="#FFCD1D"/>
<path d="M68.5909 73.975H69.5659L65.2326 57.8333C65.3409 57.8333 65.4492 57.8333 65.5576 57.8333C66.0992 57.8333 66.6409 57.6167 67.0742 57.1833C67.2908 56.9667 67.5076 56.8583 67.8326 56.8583C68.1576 56.8583 68.3742 56.9667 68.5909 57.1833C69.3493 58.05 70.6493 58.05 71.4076 57.1833C71.6242 56.9667 71.8409 56.8583 72.1659 56.8583C72.3826 56.8583 72.7075 56.9667 72.9243 57.1833C73.3576 57.6167 73.7909 57.8333 74.4409 57.8333C74.5493 57.8333 74.6575 57.8333 74.7659 57.8333L70.5409 73.975H71.5159L75.9575 57.075C75.9575 56.8583 75.9575 56.6416 75.7409 56.5333C75.5243 56.425 75.3075 56.5333 75.1993 56.6417C74.9826 56.8583 74.7659 56.9667 74.5493 56.9667C74.2243 56.9667 74.0076 56.8583 73.6826 56.6417C73.2493 56.2083 72.816 55.9917 72.2743 55.9917C71.7326 55.9917 71.2993 56.2083 70.8659 56.6417C70.4326 57.0751 69.7826 57.0751 69.3493 56.6417C69.0243 56.2083 68.4827 55.9917 67.9409 55.9917C67.3993 55.9917 66.8576 56.2083 66.5326 56.6417C66.3159 56.8583 65.9909 56.9667 65.6659 56.9667C65.4493 56.9667 65.1243 56.8583 65.0159 56.6417C64.9076 56.5333 64.6909 56.4251 64.4743 56.5333C64.2577 56.6417 64.1493 56.8583 64.2577 57.075L68.5909 73.975Z" fill="white"/>
<path d="M66.6411 83.725C67.1828 85.025 68.4828 86 69.9995 86C71.5161 86 72.8161 85.025 73.3578 83.725H66.6411Z" fill="#344A5E"/>
<path d="M74.0073 83.8333H66.099C65.0156 83.8333 64.149 82.9666 64.149 81.8833V73.6499H75.9573V81.8833C75.9573 82.9665 75.0906 83.8333 74.0073 83.8333Z" fill="#344A5E"/>
<path d="M75.8496 77.7666H64.1496C63.4996 77.7666 62.9579 77.2249 62.9579 76.5749C62.9579 75.9249 63.4996 75.3833 64.1496 75.3833H75.8496C76.4996 75.3833 77.0412 75.9249 77.0412 76.5749C77.0412 77.2249 76.4996 77.7666 75.8496 77.7666Z" fill="#415A6B"/>
<path d="M75.8487 81.5583H64.1487C63.4987 81.5583 62.9571 81.0167 62.9571 80.3667C62.9571 79.7167 63.4987 79.175 64.1487 79.175H75.8487C76.4987 79.175 77.0403 79.7167 77.0403 80.3667C77.0403 81.0166 76.4987 81.5583 75.8487 81.5583Z" fill="#415A6B"/>
<path d="M69.9982 34C69.4566 34 68.9148 34.4334 68.9148 35.0834V38.7667C68.9148 39.3084 69.3482 39.8501 69.9982 39.8501C70.6482 39.8501 71.0816 39.4167 71.0816 38.7667V35.0834C71.0816 34.4334 70.5398 34 69.9982 34Z" fill="#FFD15C"/>
<path d="M55.4836 40.6085C55.0502 40.1751 54.4002 40.1751 53.967 40.6085C53.5337 41.0418 53.5336 41.6918 53.967 42.1251L56.567 44.7251C57.0003 45.1585 57.6503 45.1585 58.0836 44.7251C58.5169 44.2917 58.517 43.6417 58.0836 43.2085L55.4836 40.6085Z" fill="#FFD15C"/>
<path d="M52.1242 55.5583H48.4408C47.8992 55.5583 47.3574 55.9917 47.3574 56.6417C47.3574 57.1833 47.7908 57.7251 48.4408 57.7251H52.1242C52.6658 57.7251 53.2075 57.2917 53.2075 56.6417C53.2075 56.1 52.6658 55.5583 52.1242 55.5583Z" fill="#FFD15C"/>
<path d="M56.5655 68.5584L53.9655 71.1584C53.5321 71.5918 53.5321 72.2417 53.9655 72.675C54.3988 73.1083 55.0488 73.1084 55.4821 72.675L58.0821 70.075C58.5155 69.6417 58.5155 68.9917 58.0821 68.5584C57.6487 68.1251 56.9988 68.125 56.5655 68.5584Z" fill="#FFD15C"/>
<path d="M83.4334 68.5583C83.0001 68.1249 82.3501 68.1249 81.9167 68.5583C81.4833 68.9917 81.4833 69.6417 81.9167 70.0749L84.5167 72.6749C84.9501 73.1083 85.6001 73.1083 86.0333 72.6749C86.4666 72.2416 86.4667 71.5916 86.0333 71.1583L83.4334 68.5583Z" fill="#FFD15C"/>
<path d="M91.5565 55.5583H87.8732C87.3315 55.5583 86.7898 55.9917 86.7898 56.6417C86.7898 57.1833 87.2232 57.7251 87.8732 57.7251H91.5565C92.0982 57.7251 92.6399 57.2917 92.6399 56.6417C92.6398 56.1 92.2065 55.5583 91.5565 55.5583Z" fill="#FFD15C"/>
<path d="M84.5167 40.6083L81.9167 43.2083C81.4833 43.6417 81.4833 44.2917 81.9167 44.7249C82.3501 45.1583 83.0001 45.1583 83.4333 44.7249L86.0333 42.1249C86.4667 41.6916 86.4667 41.0416 86.0333 40.6083C85.6 40.175 84.9501 40.1749 84.5167 40.6083Z" fill="#FFD15C"/>
<defs>
<filter id="filter0_d_6_472" x="0" y="0" width="138" height="138" filterUnits="userSpaceOnUse" color-interpolation-filters="sRGB">
<feFlood flood-opacity="0" result="BackgroundImageFix"/>
<feColorMatrix in="SourceAlpha" type="matrix" values="0 0 0 0 0 0 0 0 0 0 0 0 0 0 0 0 0 0 127 0" result="hardAlpha"/>
<feOffset dy="8"/>
<feGaussianBlur stdDeviation="12"/>
<feColorMatrix type="matrix" values="0 0 0 0 0.209553 0 0 0 0 0.374091 0 0 0 0 0.620898 0 0 0 0.1 0"/>
<feBlend mode="normal" in2="BackgroundImageFix" result="effect1_dropShadow_6_472"/>
<feBlend mode="normal" in="SourceGraphic" in2="effect1_dropShadow_6_472" result="shape"/>
</filter>
</defs>
</svg>
