<svg width="138" height="138" viewBox="0 0 138 138" fill="none" xmlns="http://www.w3.org/2000/svg">
<g filter="url(#filter0_d_6_992)">
<circle cx="69" cy="61" r="45" fill="white"/>
</g>
<path d="M70.7143 34H68.2857V35.1171H70.7143V34Z" fill="#34495E"/>
<path d="M45.1171 58.2856H44V60.7142H45.1171V58.2856Z" fill="#34495E"/>
<path d="M70.7143 83.8828H68.2857V85H70.7143V83.8828Z" fill="#34495E"/>
<path d="M94.9996 58.2856H93.8825V60.7142H94.9996V58.2856Z" fill="#34495E"/>
<path d="M69.5004 35.1172C56.0461 35.1172 45.1175 46.0458 45.1175 59.5C45.1175 72.9543 56.0461 83.8829 69.5004 83.8829C82.9547 83.8829 93.8832 72.9543 93.8832 59.5C93.8832 46.0458 82.9547 35.1172 69.5004 35.1172ZM69.5004 73.7315C61.6318 73.7315 55.269 67.3686 55.269 59.5C55.269 51.6315 61.6318 45.2686 69.5004 45.2686C77.369 45.2686 83.7318 51.6315 83.7318 59.5C83.7318 67.3686 77.369 73.7315 69.5004 73.7315Z" fill="#E6EAEE"/>
<path d="M69.5004 82.9598C56.5804 82.9598 46.089 72.4684 46.089 59.4998C46.089 46.5798 56.5804 36.0884 69.5004 36.0884C82.4204 36.0884 92.9604 46.5798 92.9604 59.4998C92.9604 72.4198 82.4204 82.9598 69.5004 82.9598ZM69.5004 44.3455C61.1461 44.3455 54.3461 51.1455 54.3461 59.4998C54.3461 67.8541 61.1461 74.6541 69.5004 74.6541C77.8547 74.6541 84.6547 67.8541 84.6547 59.4998C84.6547 51.1455 77.8547 44.3455 69.5004 44.3455Z" fill="#EEF1F7"/>
<path d="M55.4636 59.5003C55.4636 57.606 55.8522 55.7603 56.5322 54.1088L46.8665 50.126C45.6522 52.9917 44.9722 56.1974 44.9722 59.5003C44.9722 62.8031 45.6522 66.0088 46.8179 68.8745L56.4836 64.8431C55.8522 63.2403 55.4636 61.3945 55.4636 59.5003Z" fill="#FF7059"/>
<path d="M60.1261 36.866L64.1575 46.5317C65.8089 45.8517 67.6546 45.4631 69.5489 45.4631C71.4432 45.4631 73.2889 45.8517 74.9404 46.5317L78.9718 36.866C76.0089 35.6517 72.8032 34.9717 69.5004 34.9717C66.1975 34.9717 62.9918 35.6517 60.1261 36.866Z" fill="#FF7059"/>
<path d="M92.1346 68.8745C93.3489 65.9603 93.9804 62.8031 93.9804 59.5003C93.9804 56.1974 93.3004 52.9917 92.1346 50.126L82.4689 54.1574C83.1489 55.8088 83.5375 57.6545 83.5375 59.5488C83.5375 61.4431 83.1489 63.2888 82.4689 64.9403L92.1346 68.8745Z" fill="#FF7059"/>
<path d="M78.875 82.1345L74.8436 72.4688C73.1922 73.1488 71.3464 73.5373 69.4522 73.5373C67.5579 73.5373 65.7122 73.1488 64.0607 72.4688L60.0293 82.1345C62.9436 83.3488 66.1007 83.9802 69.4036 83.9802C72.8036 84.0288 76.0093 83.3488 78.875 82.1345Z" fill="#FF7059"/>
<defs>
<filter id="filter0_d_6_992" x="0" y="0" width="138" height="138" filterUnits="userSpaceOnUse" color-interpolation-filters="sRGB">
<feFlood flood-opacity="0" result="BackgroundImageFix"/>
<feColorMatrix in="SourceAlpha" type="matrix" values="0 0 0 0 0 0 0 0 0 0 0 0 0 0 0 0 0 0 127 0" result="hardAlpha"/>
<feOffset dy="8"/>
<feGaussianBlur stdDeviation="12"/>
<feColorMatrix type="matrix" values="0 0 0 0 0.209553 0 0 0 0 0.374091 0 0 0 0 0.620898 0 0 0 0.1 0"/>
<feBlend mode="normal" in2="BackgroundImageFix" result="effect1_dropShadow_6_992"/>
<feBlend mode="normal" in="SourceGraphic" in2="effect1_dropShadow_6_992" result="shape"/>
</filter>
</defs>
</svg>
