<svg width="82" height="6" viewBox="0 0 82 6" fill="none" xmlns="http://www.w3.org/2000/svg">
<path d="M70.2643 0.151579C70.3571 0.296466 70.4403 0.446363 70.5134 0.600453C70.5503 0.726797 70.5747 0.855969 70.5861 0.986364L70.29 1.25554C66.8705 1.11598 63.4198 1.10825 59.9706 1.14986C56.5215 1.19147 53.0775 1.23161 49.6328 1.44113C49.816 1.44887 49.9992 1.45807 50.1824 1.4636C53.1265 1.5516 56.0711 1.63261 59.0148 1.72983C60.1968 1.76886 61.3764 1.84729 62.5576 1.90179C65.247 2.02662 67.9384 2.13525 70.6266 2.27407C72.762 2.38454 74.895 2.52484 77.028 2.66146C78.3072 2.74357 79.5848 2.84189 80.8624 2.93763C81.1372 2.95825 81.4092 2.99765 81.7061 3.03116C81.7496 3.15516 81.8161 3.27137 81.9026 3.37472C82.0665 3.51834 81.9878 3.65716 81.9496 3.79746C81.9064 3.9202 81.8539 4.04004 81.7925 4.15612C81.5651 4.14728 81.3662 4.1447 81.169 4.13108C79.8407 4.03681 78.5128 3.94168 77.1851 3.8457C77.0111 3.81954 76.834 3.81509 76.6588 3.83244C76.0611 3.90846 75.4552 3.9139 74.856 3.84864C71.9372 3.72823 69.0148 3.69288 66.0919 3.67226C63.2454 3.65274 60.3989 3.60634 57.552 3.60966C54.2025 3.61371 50.8529 3.65421 47.5034 3.68735C45.4886 3.70724 43.4733 3.73228 41.4588 3.77537C39.8482 3.80961 38.2383 3.86669 36.6288 3.92745C33.9624 4.02785 31.2965 4.13464 28.6309 4.24781C26.7952 4.32514 24.9591 4.40505 23.1267 4.50152C21.6197 4.58069 20.1134 4.68564 18.6092 4.77807C17.6803 4.83477 16.7507 4.88043 15.823 4.94524C14.0675 5.06799 12.3132 5.19601 10.5598 5.32931C9.43491 5.41474 8.30595 5.50312 7.18502 5.61138C6.36174 5.66496 5.54495 5.78272 4.74349 5.96341C4.33369 6.06872 4.11512 5.94537 4.1099 5.62832C4.1099 5.53516 4.12799 5.44199 4.1304 5.34883C4.1304 5.27518 4.12276 5.20154 4.11633 5.09512C3.90219 5.10985 3.71094 5.12494 3.5197 5.13636C3.36935 5.14957 3.21835 5.15571 3.06731 5.15477C2.60046 5.13893 2.48034 5.05203 2.38995 4.68711C2.37307 4.61825 2.35458 4.54902 2.33329 4.46617C1.97432 4.45522 1.61516 4.48141 1.26259 4.54424C1.06532 4.57407 0.87086 4.61789 0.672387 4.64035C0.33852 4.67975 0.126797 4.57664 0.0673356 4.33987C0.0377556 4.18831 0.0172288 4.03539 0.00585938 3.88178C0.302985 3.72848 0.631077 3.63226 0.970107 3.59898C2.24506 3.35477 3.53471 3.18029 4.83227 3.07646C6.93565 2.91051 9.03997 2.75204 11.1452 2.60107C12.6738 2.48937 14.2032 2.38307 15.7334 2.28218C17.1126 2.19049 18.4931 2.11095 19.8716 2.01816C21.7776 1.89001 23.6823 1.75413 25.5875 1.62193C26.8916 1.5311 28.1958 1.44015 29.4999 1.34907C31.9322 1.17821 34.3637 1.00183 36.7968 0.83723C37.7743 0.770948 38.7554 0.730441 39.7345 0.675206C40.9398 0.607451 42.1451 0.524599 43.3504 0.469732C45.3616 0.378042 47.3741 0.304763 49.3861 0.220437C53.6641 0.0425802 57.9437 -0.000500944 62.2289 0.00170846C63.8914 0.00170846 65.5537 0.0148401 67.2157 0.0411075C68.214 0.0565733 69.2185 0.112178 70.2643 0.151579ZM19.0058 3.1873C19.7197 3.25063 26.9093 2.99913 27.8338 2.90707C27.8699 2.90339 27.9001 2.86656 27.933 2.84484C27.925 2.69055 27.8157 2.59628 27.6092 2.59849C27.2572 2.60217 26.9045 2.61359 26.5541 2.63826C25.3014 2.72627 24.0499 2.82237 22.7976 2.9137C21.5337 3.00575 20.2697 3.09696 19.0058 3.1873Z" fill="#28DCB2"/>
</svg>
