<svg width="138" height="138" viewBox="0 0 138 138" fill="none" xmlns="http://www.w3.org/2000/svg">
<g filter="url(#filter0_d_6_978)">
<circle cx="69" cy="61" r="45" fill="white"/>
</g>
<path d="M79.3489 54.873L69.9973 87.4997L60.6457 54.873H79.3489Z" fill="#6BCEF5"/>
<path d="M60.6472 54.873L69.9988 87.4997L42 54.873H60.6472Z" fill="#80DCFF"/>
<path d="M79.3515 54.873L69.9999 87.4997L97.9987 54.873H79.3515Z" fill="#80DCFF"/>
<path d="M42 54.873L53.6475 41.3003L60.6472 54.873H42Z" fill="#6BCEF5"/>
<path d="M60.6457 54.873L69.9973 41.3003L79.3489 54.873H60.6457Z" fill="#80DCFF"/>
<path d="M53.6471 41.3003L60.6468 54.873L69.9984 41.3003H53.6471Z" fill="#52BFEB"/>
<path d="M86.3512 41.3003L79.3515 54.873L69.9999 41.3003H86.3512Z" fill="#52BFEB"/>
<path d="M97.9977 54.873L86.3502 41.3003L79.3505 54.873H97.9977Z" fill="#6BCEF5"/>
<defs>
<filter id="filter0_d_6_978" x="0" y="0" width="138" height="138" filterUnits="userSpaceOnUse" color-interpolation-filters="sRGB">
<feFlood flood-opacity="0" result="BackgroundImageFix"/>
<feColorMatrix in="SourceAlpha" type="matrix" values="0 0 0 0 0 0 0 0 0 0 0 0 0 0 0 0 0 0 127 0" result="hardAlpha"/>
<feOffset dy="8"/>
<feGaussianBlur stdDeviation="12"/>
<feColorMatrix type="matrix" values="0 0 0 0 0.209553 0 0 0 0 0.374091 0 0 0 0 0.620898 0 0 0 0.1 0"/>
<feBlend mode="normal" in2="BackgroundImageFix" result="effect1_dropShadow_6_978"/>
<feBlend mode="normal" in="SourceGraphic" in2="effect1_dropShadow_6_978" result="shape"/>
</filter>
</defs>
</svg>
